<svg id="visual" viewBox="0 0 900 600" width="900" height="600" xmlns="http://www.w3.org/2000/svg" xmlns:xlink="http://www.w3.org/1999/xlink" version="1.1"><rect x="0" y="0" width="900" height="600" fill="#233d4d"></rect><path d="M0 543L21.5 527.3C43 511.7 86 480.3 128.8 481.2C171.7 482 214.3 515 257.2 537.8C300 560.7 343 573.3 385.8 560.5C428.7 547.7 471.3 509.3 514.2 493.8C557 478.3 600 485.7 642.8 502.3C685.7 519 728.3 545 771.2 547.2C814 549.3 857 527.7 878.5 516.8L900 506L900 601L878.5 601C857 601 814 601 771.2 601C728.3 601 685.7 601 642.8 601C600 601 557 601 514.2 601C471.3 601 428.7 601 385.8 601C343 601 300 601 257.2 601C214.3 601 171.7 601 128.8 601C86 601 43 601 21.5 601L0 601Z" fill="#fe7f2d" stroke-linecap="round" stroke-linejoin="miter"></path></svg>